<svg xmlns="http://www.w3.org/2000/svg" viewBox="0 0 800 330"><title>Luna_logo</title><path d="M134.216,165A151.088,151.088,0,0,1,224.338,26.746a151.061,151.061,0,1,0,0,276.508A151.088,151.088,0,0,1,134.216,165Z" fill="#017aff"/><path d="M163.4,13.939a150.532,150.532,0,0,1,60.939,12.807,151.108,151.108,0,0,0,0,276.508A151.073,151.073,0,1,1,163.4,13.939m0-10A161.061,161.061,0,0,0,49.512,278.887,161.167,161.167,0,0,0,228.376,312.4l20.725-9.148-20.725-9.149a141.107,141.107,0,0,1,0-258.21L249.1,26.746,228.376,17.6A159.9,159.9,0,0,0,163.4,3.939Z" fill="#27b7ff"/><polygon points="181.64 189.8 181.64 96.401 181.64 87.401 172.64 87.401 117.84 87.401 108.84 87.401 108.84 96.401 108.84 247.199 108.84 256.199 117.84 256.199 218.639 256.199 227.639 256.199 227.639 247.199 227.639 198.8 227.639 189.8 218.639 189.8 181.64 189.8" fill="#1a2435"/><path d="M337.638,87.4h-9v93c0,13.2-.916,13.2-6,13.2s-6,0-6-13.2v-93h-72.8v98.2c0,46.392,28.721,73,78.8,73s78.8-26.607,78.8-73V87.4h-63.8ZM314.951,201.2a10.318,10.318,0,0,1-4-3.147A10.318,10.318,0,0,0,314.951,201.2Zm-5.628-6.057a16.648,16.648,0,0,1-.561-1.659A16.648,16.648,0,0,0,309.323,195.144Zm-1.483-7.3q.078,1.008.2,1.975-.123-.966-.2-1.975t-.12-2.055Q307.764,186.84,307.84,187.849Z" fill="#1a2435"/><path d="M534.635,87.4h-9v54.465l-29.443-50.03-2.61-4.435H426.836V256.2h70.4V203.058l29.712,48.82,2.629,4.321h66.458V87.4h-61.4Z" fill="#1a2435"/><polygon points="797 240.199 738.91 93.377 736.778 87.401 730.434 87.401 669.835 87.401 663.435 87.401 661.334 93.447 604.78 240.199 604.78 256.199 617.436 256.199 675.435 256.199 682.571 256.199 684.198 249.25 686.972 237.399 714.315 237.399 717.537 249.512 719.315 256.199 726.234 256.199 784.233 256.199 797 256.199 797 240.199" fill="#1a2435"/><path d="M117.84,80.4h54.8V182.8h46v48.4H117.84Z" fill="#293547"/><path d="M172.64,80.4V182.8h46v48.4H117.84V80.4h54.8m9-9h-72.8V240.2h118.8V173.8h-46V71.4Z" fill="#fff"/><path d="M392.437,80.4v89.2c0,44-27.6,64-69.8,64s-69.8-20-69.8-64V80.4h54.8v84c0,11.8.4,22.2,15,22.2s15-10.4,15-22.2v-84Z" fill="#293547"/><path d="M392.437,80.4v89.2c0,44-27.6,64-69.8,64s-69.8-20-69.8-64V80.4h54.8v84c0,11.8.4,22.2,15,22.2s15-10.4,15-22.2v-84h54.8m9-9h-72.8v93c0,13.2-.916,13.2-6,13.2s-6,0-6-13.2v-93h-72.8v98.2c0,46.392,28.721,73,78.8,73s78.8-26.607,78.8-73V71.4Z" fill="#fff"/><path d="M435.836,80.4h52.6l49.2,83.6h1.6c-2.2-12.6-4.6-25.6-4.6-38.4V80.4h52.4V231.2h-52.4l-48.2-79.2h-1.6c1.8,10.4,3.4,20.2,3.4,30.2v49h-52.4Z" fill="#293547"/><path d="M587.034,80.4V231.2h-52.4l-48.2-79.2h-1.6c1.8,10.4,3.4,20.2,3.4,30.2v49h-52.4V80.4h52.6l49.2,83.6h1.6c-2.2-12.6-4.6-25.6-4.6-38.4V80.4h52.4m9-9h-70.4v54.465l-29.443-50.03-2.61-4.435H426.836V240.2h70.4V187.058l29.712,48.82,2.629,4.321h66.458V71.4Z" fill="#fff"/><path d="M675.435,231.2h-58l52.4-150.8h60.6l53.8,150.8h-58l-5-18.8h-41.4Zm36.2-54.6-6.4-26.6c-1.6-6.4-2.6-13-3.6-19.4h-2l-10,46Z" fill="#293547"/><path d="M730.434,80.4l53.8,150.8h-58l-5-18.8h-41.4l-4.4,18.8h-58l52.4-150.8h60.6m-40.8,96.2h22l-6.4-26.6c-1.6-6.4-2.6-13-3.6-19.4h-2l-10,46M736.778,71.4H663.435l-2.1,6.046-52.4,150.8L604.78,240.2h77.791l1.627-6.949,2.774-11.851h27.343l3.222,12.113,1.778,6.687H797l-4.29-12.024-53.8-150.8L736.778,71.4Z" fill="#fff"/></svg>
